<?xml version="1.0" encoding="utf-8"?>
<!-- Generator: Adobe Illustrator 19.0.0, SVG Export Plug-In . SVG Version: 6.00 Build 0)  -->
<svg version="1.1" id="Layer_1" xmlns="http://www.w3.org/2000/svg" xmlns:xlink="http://www.w3.org/1999/xlink" x="0px" y="0px"
	 viewBox="0 0 96 96" >
<style type="text/css">
	.st0{fill:#87868A;}
</style>
<g id="XMLID_1_">
	
		<rect id="XMLID_3_" x="44.8" y="44.7" transform="matrix(0.319 0.9478 -0.9478 0.319 78.0849 -12.8365)" class="st0" width="6.3" height="6.4"/>
	<path style="fill:#87868A;" id="XMLID_6_" class="st0" d="M48,20.5c-15.2,0-27.5,12.3-27.5,27.5c0,15.2,12.3,27.5,27.5,27.5c15.2,0,27.5-12.3,27.5-27.5
		C75.5,32.8,63.2,20.5,48,20.5z M62,52.4l-2.9,1l1,3c0.5,1.5-0.3,3-1.7,3.5c-1.5,0.5-3-0.3-3.5-1.7l-1-3l-6.1,2l1,3
		c0.5,1.5-0.3,3-1.7,3.5c-1.5,0.5-3-0.3-3.5-1.7l-1-3l-2.8,0.9c-1.5,0.5-3-0.3-3.5-1.7c-0.5-1.5,0.3-3,1.7-3.5l2.8-0.9l-2-5.9
		l-2.9,1c-1.5,0.5-3-0.3-3.5-1.7c-0.5-1.5,0.3-3,1.7-3.5l2.9-1l-1-2.8c-0.5-1.5,0.3-3,1.7-3.5c1.5-0.5,3,0.3,3.5,1.7l1,2.8l6.1-2
		l-1-2.9c-0.5-1.5,0.3-3,1.7-3.5c1.5-0.5,3,0.3,3.5,1.7l1,2.9l2.9-1c1.5-0.5,3,0.3,3.5,1.7c0.5,1.5-0.3,3-1.7,3.5l-2.9,1l2,5.9
		l2.9-1c1.5-0.5,3,0.3,3.5,1.7C64.2,50.3,63.4,51.9,62,52.4z"/>
</g>
</svg>
